#N canvas 1920 54 845 470 10;
#X declare -stdpath blokas;
#X obj 226 62 notein;
#X floatatom 225 90 5 0 0 0 - - -;
#X obj 138 83 r transpose;
#X obj 138 108 t b f;
#X obj 161 140 i;
#X obj 224 136 f 60;
#X obj 301 64 r midlle_c_btn;
#X obj 301 94 t b f;
#X obj 349 109 == 1;
#X obj 302 129 spigot;
#X obj 412 40 vsl 15 128 0 127 0 0 volume volume volume 0 -9 0 10 -262144
-1 -1 0 1;
#X obj 472 40 vsl 15 128 -12 12 0 1 transpose transpose Transpose 0
-9 0 10 -262144 -1 -1 6350 1;
#X floatatom 406 287 5 0 0 0 - - -;
#X floatatom 480 284 5 0 0 0 - - -;
#X obj 480 262 r middle_c_btn;
#X floatatom 349 286 5 0 0 0 - - -;
#X obj 406 262 r transpose;
#X obj 350 262 r volume;
#X obj 167 196 *;
#X obj 167 228 mtof;
#X obj 174 261 osc~;
#X obj 210 264 r volume;
#X obj 186 296 *~ 1;
#X obj 183 380 dac~;
#X obj 181 344 *~;
#X obj 276 263 r sound_on;
#X obj 233 320 i;
#X floatatom 309 286 5 0 0 0 - - -;
#X obj 566 63 tgl 15 0 sound_on sound_on Sound_on 17 7 0 10 -262144
-1 -1 0 1;
#X obj 567 84 tgl 15 0 middle_c_btn middle_c_btn middle_c_button 17
7 0 10 -262144 -1 -1 0 1;
#X obj 686 50 declare -stdpath blokas;
#X obj 687 214 ktrl transpose;
#X obj 687 78 monorack kaos;
#X connect 0 0 1 0;
#X connect 0 0 18 0;
#X connect 2 0 3 0;
#X connect 3 0 18 0;
#X connect 3 1 4 0;
#X connect 4 0 18 1;
#X connect 5 0 18 1;
#X connect 6 0 7 0;
#X connect 7 1 8 0;
#X connect 8 0 9 1;
#X connect 9 0 5 0;
#X connect 14 0 13 0;
#X connect 16 0 12 0;
#X connect 17 0 15 0;
#X connect 18 0 19 0;
#X connect 19 0 20 0;
#X connect 20 0 22 0;
#X connect 21 0 22 1;
#X connect 22 0 24 0;
#X connect 24 0 23 0;
#X connect 24 0 23 1;
#X connect 25 0 26 0;
#X connect 25 0 27 0;
#X connect 26 0 24 1;
