#N canvas 128 127 516 336 12;
#X obj 168 18 inlet;
#X msg 131 261 \; \$1 \$2;
#X obj 131 233 pack s f;
#X obj 307 122 float \$2;
#X obj 22 146 makefilename init_%s;
#X obj 22 119 symbol \$1;
#X obj 425 122 float \$3;
#X obj 190 172 expr ($f1 * ($f3 - $f2)) + $f2;
#X obj 168 43 t b f b b;
#X connect 0 0 8 0;
#X connect 2 0 1 0;
#X connect 3 0 7 1;
#X connect 4 0 2 0;
#X connect 5 0 4 0;
#X connect 6 0 7 2;
#X connect 7 0 2 1;
#X connect 8 0 5 0;
#X connect 8 1 7 0;
#X connect 8 2 3 0;
#X connect 8 3 6 0;
#X coords 0 0 0.00214592 0.00316456 200 140 0;
